<svg xmlns="http://www.w3.org/2000/svg" width="23.676" height="16.911" viewBox="0 0 23.676 16.911">
  <path id="Icon_zocial-cart" data-name="Icon zocial-cart" d="M-2.07,5.652a.946.946,0,0,1,.275-.7.944.944,0,0,1,.7-.275H3.87a.969.969,0,0,1,.6.2.939.939,0,0,1,.349.539l.507,2.072H19.576l.149-.444a.874.874,0,0,1,.909-.676.651.651,0,0,1,.275.042.91.91,0,0,1,.507.338.923.923,0,0,1,.19.571,1.181,1.181,0,0,1-.042.275L19.07,15.905a.909.909,0,0,1-.338.507.929.929,0,0,1-.571.19H6.344a.94.94,0,0,1-.6-.211.987.987,0,0,1-.349-.529L3.109,6.6H-1.1a.956.956,0,0,1-.687-.275A.9.9,0,0,1-2.07,5.652ZM5.794,9.415,7.1,14.658H17.442l.042-.19,1.523-5.052H5.794Zm.888,10.232a1.855,1.855,0,0,1,.581-1.374A1.909,1.909,0,0,1,8.648,17.7a1.945,1.945,0,0,1,0,3.889,1.909,1.909,0,0,1-1.385-.57A1.858,1.858,0,0,1,6.682,19.647Zm1.374-8.583h3.509v1.944H8.478Zm5.179,1.945.021-1.944h3.425l-.507,1.944Zm.782,6.638a1.856,1.856,0,0,1,.582-1.374,1.907,1.907,0,0,1,1.385-.571,1.945,1.945,0,0,1,0,3.889,1.908,1.908,0,0,1-1.385-.57A1.856,1.856,0,0,1,14.017,19.647Z" transform="translate(2.07 -4.68)" fill="#a9aab9"/>
</svg>
