<svg xmlns="http://www.w3.org/2000/svg" width="17.378" height="17.378" viewBox="0 0 17.378 17.378">
  <g id="Icon_ionic-md-chatbubbles" data-name="Icon ionic-md-chatbubbles" transform="translate(0)">
    <path id="Path_27" data-name="Path 27" d="M6.917,19.939a2.18,2.18,0,0,1-1.871-1.871V11.25h-.4a1.275,1.275,0,0,0-1.27,1.27V23.949l2.444-2.423H14.8a1.29,1.29,0,0,0,1.27-1.291v-.3Z" transform="translate(-3.375 -6.571)" fill="#d9daeb"/>
    <path id="Path_28" data-name="Path 28" d="M21.207,3.375H9.544A1.462,1.462,0,0,0,8.086,4.833v9.445A1.465,1.465,0,0,0,9.544,15.74h9.95l3.171,2.214V4.833A1.462,1.462,0,0,0,21.207,3.375Z" transform="translate(-5.287 -3.375)" fill="#a9aab9"/>
  </g>
</svg>
