<svg viewBox="0 0 343 203" xmlns="http://www.w3.org/2000/svg" xmlns:xlink="http://www.w3.org/1999/xlink"><clipPath id="a"><path d="m132.33 0h210.67v203h-210.67z"/></clipPath><clipPath id="b"><path d="m270.46 54.18-.63.12s-10 .41-12.22 4.15-5.53 18.26-5.53 18.26l-7.08 31.45a101.33 101.33 0 0 1 14.48 3.56c6.85 2.32 11 7.15 16.68 15.4 0 0 7.87-2.6 12.26-8.4s3.33-19.78 3.33-19.78 3.28 1 5.15-9.54 3.51-27.89-.08-31.83c-2.14-2.85-13.58-3.78-13.58-3.78z"/></clipPath><clipPath id="c"><path d="m262.35 29s-2.11-1-2.25-5.59a10.36 10.36 0 0 1 4.28-8.93 18.28 18.28 0 0 1 10.91-2.28c5.38.46 9.37 1.55 11.69 3.72a5.61 5.61 0 0 1 2 4.49c2 .88 2.16 5 1.93 7.39-.8 8.25-8.23 15.92-11.5 17.32l-3.69-5.12z"/></clipPath><clipPath id="d"><path d="m262.52 26.53s-2.61 20.62 5.24 21.7c4.91.77 11.17-5.23 11.17-5.23s4.34.77 5.11-3.32-1.6-4.21-3-3.83c0 0-1.38 0-1.7-2.52s.29-4.66-2.23-6.1-7.57-4.23-14.59-.7z"/></clipPath><g clip-path="url(#a)"><path d="m5 0h333a5 5 0 0 1 5 5v193a5 5 0 0 1 -5 5h-333a5 5 0 0 1 -5-5v-193a5 5 0 0 1 5-5z" fill="#fff"/><ellipse cx="247.04" cy="189.87" fill="#e1f5ff" rx="43.12" ry="13.13"/><ellipse cx="257.09" cy="178.52" fill="#e1f5ff" rx="115.91" ry="4.27"/><path d="m237.85 102.37h23v2.63h-20.33a2.67 2.67 0 0 0 -2.67 2.66v22.84h-2.66v-25.5a2.66 2.66 0 0 1 2.66-2.66z" fill="#147cde"/><path d="m274.84 92.8h93.89v28.57h-93.89z" fill="#0f773a"/><path d="m274.84 121.37h93.89v28.57h-93.89z" fill="#0f773a"/><path d="m274.84 149.94h93.89v28.57h-93.89z" fill="#0f773a"/><path d="m308.61 101.52h27.91v4.24h-27.91z" fill="#97cdfd"/><path d="m308.61 129.78h27.91v4.24h-27.91z" fill="#97cdfd"/><path d="m308.61 158.04h27.91v4.24h-27.91z" fill="#97cdfd"/><path d="m274.84 119.95h93.89v2.58h-93.89z" fill="#1891f4"/><path d="m274.84 148.66h93.89v2.58h-93.89z" fill="#1891f4"/><path d="m324.77 82.57c0-1.56 1.38-2.82 3.71-2.82h37.72a3.57 3.57 0 0 1 .66-1.52h-40a4.34 4.34 0 0 0 -4.34 4.34 4.33 4.33 0 0 0 4.34 4.33h40s-.43-.3-.72-1.52h-37.66c-2.33 0-3.71-1.25-3.71-2.81z" fill="#0a4cac"/><path d="m366.2 79.75h-37.72c-2.33 0-3.71 1.26-3.71 2.82 0 1.55 1.38 2.81 3.71 2.81h37.66a11.75 11.75 0 0 1 -.25-2.64 12.5 12.5 0 0 1 .31-2.99z" fill="#eef7ff"/><path d="m320.69 73.89c0-1.55 1.38-2.81 3.71-2.81h37.72a3.52 3.52 0 0 1 .66-1.52h-40a4.34 4.34 0 0 0 -4.34 4.33 4.34 4.34 0 0 0 4.34 4.34h40s-.43-.3-.71-1.52h-37.67c-2.33 0-3.71-1.26-3.71-2.82z" fill="#ff5e63"/><path d="m362.12 71.08h-37.72c-2.33 0-3.71 1.26-3.71 2.81 0 1.56 1.38 2.82 3.71 2.82h37.67a11.8 11.8 0 0 1 -.26-2.65 13 13 0 0 1 .31-2.98z" fill="#eef7ff"/><path d="m322.89 65.22c0-1.56 1.38-2.82 3.71-2.82h37.72a3.57 3.57 0 0 1 .66-1.52h-39.98a4.33 4.33 0 0 0 -4.33 4.34 4.34 4.34 0 0 0 4.33 4.34h40a2.66 2.66 0 0 1 -.71-1.53h-37.68c-2.34-.03-3.72-1.26-3.72-2.81z" fill="#42b58b"/><path d="m364.33 62.4h-37.73c-2.33 0-3.71 1.26-3.71 2.82 0 1.55 1.38 2.81 3.71 2.81h37.67a11.75 11.75 0 0 1 -.25-2.64 12 12 0 0 1 .31-2.99z" fill="#eef7ff"/><path d="m221.6 179.35a5.81 5.81 0 0 1 -5.87 5.28c-6 .3-8.52 2.18-8.67 5.87s6.71 4.74 10.85 3.54 11 .68 13.11-1.13c0 0 .68-5.65-.38-8.36a10.49 10.49 0 0 1 0-6z" fill="#2f9e77"/><path d="m233.79 182.06a5.81 5.81 0 0 1 -5.09 6c-5.85 1.12-8.13 3.34-7.77 7s7.3 3.77 11.23 2 11-.84 12.83-2.92c0 0-.1-5.69-1.52-8.23a10.48 10.48 0 0 1 -.84-6z" fill="#42b58b"/><path d="m300.63 60.27v59.16c0 5.67-4.2 10.27-9.38 10.27h-30.47a10.71 10.71 0 0 1 -2.45-.28 11.31 11.31 0 0 1 -.2-3.18v-59.16c0-5.67 4.2-10.27 9.38-10.27h30.49a8.5 8.5 0 0 1 2.19.29 11 11 0 0 1 .44 3.17z" fill="#6bb2a4"/><path d="m269.64 178.17c-9.43 0-17.07 2.46-17.07 5.5v2.69c0 3 7.64 5.5 17.07 5.5s17.08-2.46 17.08-5.5v-2.69c0-3.04-7.65-5.5-17.08-5.5z" fill="#144bc6"/><ellipse cx="269.64" cy="183.66" fill="#68adf1" rx="17.07" ry="5.5"/><path d="m272.79 146.69v-10.54h-6.29v8.25a7.88 7.88 0 0 1 6.29 2.29z" fill="#043268"/><path d="m266.5 144.4v40.32a7.51 7.51 0 0 0 3.14.53 10.2 10.2 0 0 0 3.15-.53v-38a7.88 7.88 0 0 0 -6.29-2.32z" fill="#063985"/><path d="m271.74 136.51h-22c-5.16 0-4.37-2.49-4.37-7.09a13 13 0 0 0 2.71.28h23.65a2.1 2.1 0 0 0 -2.1 2.1v2.62a2.1 2.1 0 0 0 2.11 2.09z" fill="#1891f1"/><path d="m309 67.08v59.16c0 5.67-5.2 10.27-11.62 10.27h-25.64a2.1 2.1 0 0 1 -2.1-2.1v-2.61a2.1 2.1 0 0 1 2.1-2.1h17.26c6.42 0 11.62-4.6 11.62-10.27v-59.16a9.41 9.41 0 0 0 -.56-3.2c5.12 1.08 8.94 5.17 8.94 10.01z" fill="#6aaef2"/><path d="m230.4 121.24c1.39-5.93 20.65-8.53 31.37-9.52l-6.19-4.72s-31.15 2.17-34.84 10.42.16 63.75.16 63.75a12.07 12.07 0 0 0 9.5.33s-1.93-52.01 0-60.26z" fill="#043268"/><path d="m277 123.46-15.26-11.74c-10.72 1-30 3.59-31.37 9.52-1.93 8.25 0 60.22 0 60.22a14.75 14.75 0 0 0 14.63 1.38s2.63-38.25 2.11-43.7-.59-6.93 5.85-7.24 21.88-3.58 23.2-4.78.84-3.66.84-3.66z" fill="#063985"/><path d="m270.46 54.18-.63.12s-10 .41-12.22 4.15-5.53 18.26-5.53 18.26l-7.08 31.45a101.33 101.33 0 0 1 14.48 3.56c6.85 2.32 11 7.15 16.68 15.4 0 0 7.87-2.6 12.26-8.4s3.33-19.78 3.33-19.78 3.28 1 5.15-9.54 3.51-27.89-.08-31.83c-2.14-2.85-13.58-3.78-13.58-3.78z" fill="#d7eeff"/><g clip-path="url(#b)" fill="#b6e3ff"><path d="m287.8 69.55s1.06 17.51-2.46 18.68-25.25-2-25.25-2 23.73 2.34 24.79-2.1 1.99-9.03 2.92-14.58z"/><path d="m293.19 100.28-1.47-1.34s-9.57 1.84-32.26-5.78 18.4 8.13 17.63 19-4.3 17.31-4.3 17.31l6 1.76 4-1.76s7.26-5.57 7.61-6.35 3.27-11.35 3.27-11.35z"/></g><path d="m265.4 62.42a.66.66 0 1 1 -1.32-.08 12.78 12.78 0 0 1 6.92-10.45c.35.09.71.18 1.07.25a2.63 2.63 0 0 1 -.47.79 3.73 3.73 0 0 1 -.36.32 11.42 11.42 0 0 0 -5.84 9.17z" fill="#147cde"/><path d="m261 66.5a.44.44 0 0 1 .86.14s-2.11 11.43 4.5 14.36a.44.44 0 0 1 -.35.8c-7.26-3.21-5.01-15.27-5.01-15.3z" fill="#98b6d8"/><path d="m266.88 67.09a.45.45 0 0 1 .48-.4.45.45 0 0 1 .4.48s-1.29 13.34-9.18 13.73a.44.44 0 0 1 -.48-.39.45.45 0 0 1 .4-.48c7.15-.35 8.38-12.9 8.38-12.94z" fill="#98b6d8"/><path d="m262.05 66.56a.65.65 0 0 1 -.63.69.66.66 0 0 1 -.69-.62 4.75 4.75 0 0 1 2.16-4.43 3.36 3.36 0 0 1 1.78-.44 3.19 3.19 0 0 1 1.73.62c1.11.81 1.86 2.43 1.57 4.88a.64.64 0 0 1 -.75.55.66.66 0 0 1 -.56-.7c.23-1.91-.28-3.11-1-3.67a1.93 1.93 0 0 0 -1-.36 2 2 0 0 0 -1.07.27 3.45 3.45 0 0 0 -1.54 3.21z" fill="#144bc6"/><path d="m267.27 80.41a1.4 1.4 0 0 0 -2 0 1.39 1.39 0 0 0 0 2 1.41 1.41 0 0 0 2 0 1.39 1.39 0 0 0 0-2z" fill="#6c83a2"/><path d="m259.87 79.54a1.4 1.4 0 0 0 -2 0 1.4 1.4 0 1 0 2 0z" fill="#6c83a2"/><path d="m231.91 65.33 24.3 3a1.45 1.45 0 0 1 1.27 1.44v38.06a1.46 1.46 0 0 1 -1.45 1.46h-.24l-22.43-3.74a1.45 1.45 0 0 1 -1.21-1.36l-1.88-37.3a1.46 1.46 0 0 1 1.38-1.53 1.13 1.13 0 0 1 .26-.03z" fill="#0f773a"/><path d="m259.86 86.93s-10.38-8.73-14.05-4.21 2.34 7.41 5.87 8.43 7.78 2 7.78 2z" fill="#fec3c0"/><circle cx="199.2" cy="29.44" fill="#6bb2a4" r="26.22"/><path d="m199.2 30.19a.74.74 0 0 1 -.5-.2l-13-11.86a.75.75 0 1 1 1-1.11l12.54 11.41 9.62-8.43a.77.77 0 0 1 1.06.09.74.74 0 0 1 -.07 1.05l-10.15 8.86a.76.76 0 0 1 -.5.19z" fill="#fee3ce"/><path d="m198.38 47.83h1.58v4.13h-1.58z" fill="#fff"/><path d="m198.38 6.92h1.58v4.13h-1.58z" fill="#fff"/><path d="m176.65 28.65h4.13v1.58h-4.13z" fill="#fff"/><path d="m217.56 28.65h4.13v1.58h-4.13z" fill="#fff"/><path d="m199.2 29.92 6.37 19.14" fill="none" stroke="#fff" stroke-linecap="round" stroke-linejoin="round" stroke-width="2"/><circle cx="199.2" cy="29.44" fill="#7bbdff" r="2.77"/><circle cx="199.2" cy="29.44" fill="#ff5e63" r="1.63"/><rect fill="#cef" height="86.62" rx="33.19" width="102.87" x="267.05" y="-40.54"/><path d="m272.43-35.93h92.57v36.28h-92.57z" fill="#f3fbff"/><path d="m272.43 5.22h92.57v36.28h-92.57z" fill="#f3fbff"/><path d="m328.14 3.51-12.64 39.91h5.38l12.29-39z" fill="#cef"/><g fill="#7cc5f9"><path d="m277.08-30.05h10.13v30.4h-10.13z"/><path d="m288.78-30.05h10.13v30.4h-10.13z"/><path d="m300.48-30.05h10.13v30.4h-10.13z"/><path d="m312.17-30.05h10.13v30.4h-10.13z"/><path d="m337.44 11.1h10.13v30.4h-10.13z"/><path d="m335.4-1.97h17.6v2.32h-17.6z"/><path d="m277.01 15.69h28.16v25.74h-28.16z"/></g><path d="m279.43 17.9h23.32v21.32h-23.32z" fill="#b6e0ff"/><circle cx="291.02" cy="28.61" fill="#ebf5ff" r="5.81"/><path d="m300.69 101.57v2.66h-24.43a2.56 2.56 0 0 0 -2.44 2.66v22.85h-2.44v-25.51a2.77 2.77 0 0 1 .71-1.88 2.34 2.34 0 0 1 1.73-.78z" fill="#158ff4"/><path d="m267 96.8a30.84 30.84 0 0 1 -1.53 3.48c-6 11.44-6.06 10.86-6.06 10.86" fill="none" stroke="#b6e3ff" stroke-linecap="round" stroke-linejoin="round" stroke-width="9"/><path d="m273 60.46a209 209 0 0 1 -3.32 26.73" fill="none" stroke="#b6e3ff" stroke-miterlimit="10" stroke-width="9"/><path d="m278.78 66.41h2.38v9.06h-2.38z" fill="#6aaef2" transform="matrix(.04640908 -.99892252 .99892252 .04640908 196.11 347.32)"/><path d="m262.35 29s-2.11-1-2.25-5.59a10.36 10.36 0 0 1 4.28-8.93 18.28 18.28 0 0 1 10.91-2.28c5.38.46 9.37 1.55 11.69 3.72a5.61 5.61 0 0 1 2 4.49c2 .88 2.16 5 1.93 7.39-.8 8.25-8.23 15.92-11.5 17.32l-3.69-5.12z" fill="#072549"/><g clip-path="url(#c)"><path d="m259.16 23.66s-.32 1.29 3.69.06 6.78-1.93 10.91-.53 6.71 2.5 7.13 4.87-.26 5.75 1.38 5.93 5.91 1.29 7.73-1.49c0 0-4 9.66-4.15 9.66s-6.36 4.68-6.36 4.68l-2.49-.53-8-2.63-8.5-11.74-1.5-5.77z" fill="#05182b"/></g><path d="m279.2 49.9c0-.16-.05-.32-.06-.48a20 20 0 0 1 .86-6.42l-4.21-3.87-5 3.94a47.9 47.9 0 0 1 .05 7.48 18.22 18.22 0 0 1 8.36-.65z" fill="#f19596"/><path d="m279.2 49.9a18.13 18.13 0 0 0 -8.4.68 10.68 10.68 0 0 1 -.85 3.69l2.89 7.7 9.3-8.15a6 6 0 0 1 -2.94-3.92z" fill="#fec3c0"/><path d="m262.52 26.53s-2.61 20.62 5.24 21.7c4.91.77 11.17-5.23 11.17-5.23s4.34.77 5.11-3.32-1.6-4.21-3-3.83c0 0-1.38 0-1.7-2.52s.29-4.66-2.23-6.1-7.57-4.23-14.59-.7z" fill="#fec3c0"/><g clip-path="url(#d)"><path d="m259.86 30.24s1-1 6.29-1.63 9.83.4 10.36 2.33-.24 6.76 2.87 6.59 5 1 4.5 2.77l1 .2-.68-7.27-4.81-7.55-5.33-2.08h-11.96z" fill="#f19596"/></g><path d="m278.64 68.79a3.41 3.41 0 1 1 -2.57.46 3.4 3.4 0 0 1 2.57-.46z" fill="#6c83a2"/><path d="m279.92 70.84a2.37 2.37 0 0 0 -3.26-.74 2.38 2.38 0 1 0 3.29.72z" fill="#147cde"/><path d="m278.94 71.47a1.21 1.21 0 0 0 -1.67-.38 1.22 1.22 0 0 0 1.32 2.05 1.2 1.2 0 0 0 .37-1.68z" fill="#144bc6"/><path d="m280.52 50.86-.08-.14-.07-.08a1.46 1.46 0 0 0 -.49-.31 1.94 1.94 0 0 0 -.59 0 4.86 4.86 0 0 0 .33.9 4 4 0 0 1 .38.77l.05.14c1.31 3.37 1.19 9-1.77 17.74a.52.52 0 0 0 .31.65.51.51 0 0 0 .66-.31c3.31-9.87 3.09-15.89 1.27-19.36z" fill="#147cde"/></g></svg>