<svg xmlns="http://www.w3.org/2000/svg" width="15.337" height="18.125" viewBox="0 0 15.337 18.125">
  <path id="Icon_ionic-md-notifications-outline" data-name="Icon ionic-md-notifications-outline" d="M13.337,6.533a6.3,6.3,0,0,1,1.042.2,4.44,4.44,0,0,1,3.384,4.35v5.56l.406.408.339.341H8.078l.339-.341.406-.408v-5.56a4.44,4.44,0,0,1,3.384-4.35,7.713,7.713,0,0,1,1.042-.2m.044-3.158A1.332,1.332,0,0,0,11.94,4.734v.634a5.874,5.874,0,0,0-4.511,5.709v4.984l-1.8,1.813v.906H20.962v-.906l-1.8-1.812V11.078a5.874,5.874,0,0,0-4.511-5.709V4.734a1.332,1.332,0,0,0-1.353-1.359Zm1.8,16.313H11.489a1.8,1.8,0,1,0,3.609,0Z" transform="translate(-5.625 -3.375)" fill="#f6f5f4"/>
</svg>
