<svg xmlns="http://www.w3.org/2000/svg" width="270.838" height="281.559" viewBox="0 0 270.838 281.559">
  <g id="Group_4" data-name="Group 4" transform="translate(0 8.937) rotate(-3)">
    <path id="Path_1" data-name="Path 1" d="M-8.244,166.816c6.6,15.856,46.948-4.738,55.7-11.117,2.321-1.641,4.641-3.646,6.783-5.468,1.071-.911,1.964-1.822,2.856-2.734,4.284-4.009,8.39-8.566,12.5-13.122.714-.729,1.428-1.64,2.142-2.369,4.106-4.739,8.212-9.477,12.5-14.033l2.678-2.734c1.607-1.64,3.213-3.281,5-4.921,1.964-1.823,3.927-3.645,6.069-5.285A19.535,19.535,0,0,1,101,102.664c3.57-2.916,7.14-5.468,10.889-8.019a28.985,28.985,0,0,1,3.035-2l11.782-7.654,2.321-1.458,15.53-9.842c.714-.364,1.428-.911,2.142-1.276,1.785-1.276,3.749-2.551,5.534-3.645,20.171-13.851,39.272-31.712,46.234-55.4C187.226,33.409,166.7,47.624,144.383,50.54c-11.6,1.64-23.563.364-34.631,4.374-12.5,4.374-21.957,14.58-32.489,22.417C60.483,89.724,49.951,79.7,30.671,86.99-3.781,99.93,8.179,125.263,2.645,134.922-2.175,141.665-11.814,158.251-8.244,166.816Z" transform="translate(63.247 8.408)" fill="#b4d9d2"/>
    <path id="Path_2" data-name="Path 2" d="M75.963,66.643c-.714-2.916-.714-9.659-.714-10.753.357-4.921,1.964-8.93,3.392-13.669A40.327,40.327,0,0,0,77.213,57.53c0,.729,1.071,4.738,1.071,7.472Z" transform="translate(113.459 26.569)" fill="#fff7fb" opacity="0.37"/>
    <path id="Path_3" data-name="Path 3" d="M88.958,55.686c0-.364-.179-.547-.179-.729a40.327,40.327,0,0,1,1.428-15.309C88.78,44.2,87.173,48.4,86.995,53.317v3.827A7.933,7.933,0,0,1,88.958,55.686Z" transform="translate(120.457 24.95)" fill="#fff7fb" opacity="0.37"/>
    <path id="Path_4" data-name="Path 4" d="M69.591,71.552c-.357-2.916-1.071-5.832-1.071-6.561a52.952,52.952,0,0,1,1.607-18.407c-1.607,5.65-3.57,10.388-3.927,16.4a84.4,84.4,0,0,0,.357,10.753C67.628,72.828,68.7,72.281,69.591,71.552Z" transform="translate(108.049 29.314)" fill="#fff7fb" opacity="0.37"/>
    <path id="Path_5" data-name="Path 5" d="M57.972,80.073A19.537,19.537,0,0,1,61.007,77.7c-.357-2.916-1.071-5.832-1.071-6.561a49,49,0,0,1,1.607-18.407c-1.607,5.65-3.57,10.388-3.927,16.4A62.289,62.289,0,0,0,57.972,80.073Z" transform="translate(102.888 33.185)" fill="#fff7fb" opacity="0.37"/>
    <path id="Path_6" data-name="Path 6" d="M49.664,89.042l2.678-2.734c0-3.281-1.25-7.655-1.25-8.566A52.952,52.952,0,0,1,52.7,59.336c-1.607,5.65-3.57,10.388-3.927,16.4C48.593,77.014,48.593,85.579,49.664,89.042Z" transform="translate(97.629 37.338)" fill="#fff7fb" opacity="0.37"/>
    <path id="Path_7" data-name="Path 7" d="M40.773,99.532c-1.607-2-1.428-12.94-1.428-14.4.357-5.832,2.321-10.753,3.927-16.4a45.892,45.892,0,0,0-1.607,18.407c.179.911,1.607,6.561,1.25,10.024Z" transform="translate(92.061 43.251)" fill="#fff7fb" opacity="0.37"/>
    <path id="Path_8" data-name="Path 8" d="M31.114,111.123c-1.428-3.463-1.428-14.762-1.25-16.585.357-7.108,2.856-12.758,4.82-19.318a56.709,56.709,0,0,0-1.964,21.87c.179,1.094,1.607,7.29,1.428,11.3Z" transform="translate(86.368 47.334)" fill="#fff7fb" opacity="0.37"/>
    <path id="Path_9" data-name="Path 9" d="M-41.572,211.806A477.294,477.294,0,0,1-10.02,149.6l.428-.439c-.143.878-.285-.878,0,0,7.71-4.1,15.419,1.317,23.557,2.635a42.476,42.476,0,0,0,32.409-8.49,45.6,45.6,0,0,0,16.99-29.568C57.8,120.613,48.8,123.541,40.236,125s-17.561,1.61-25.842,4.391a59.069,59.069,0,0,0-18.7,11.564c.143-.293.285-.732.428-1.025,3.426-5.416,6.853-10.685,10.565-15.955,8-11.71,16.562-22.981,25.556-33.813-4.711,12,20.131,13.467,29.982,9.222A42.126,42.126,0,0,0,85.067,73.627C70.218,80.946,53.8,70.992,40.093,80.946c6-6.88,12.136-13.613,18.56-20.053,0,.293.143.439.143.732,1.428,3.513,12.992,1.317,15.848.732,12.849-2.2,19.845-9.368,29.982-16.394-5,3.367-11.279,3.806-17.276,3.659S75.215,48.889,69.5,50.646a9.686,9.686,0,0,0-1.428.586c4.14-4.1,8.424-8.051,12.707-11.857a9.039,9.039,0,0,0,2,1.171c9.851,4.391,23.986-8.051,29.7-14.93C118.9,18,123.33,8.929,127.756,0c-6.425,4.245-13.992,6.148-21.416,8.2s-14.848,4.538-20.7,9.661c-4.854,4.391-10.422,14.784-6,20.346C73.93,43.327,68.22,48.743,62.794,54.159a23.512,23.512,0,0,0,1.142-2.635c3.712-10.978,4.711-23.566,4.569-35.13,0-1.464-.571-5.27-.571-5.27s-3.284,2.2-4.14,2.928c-4.854,4.538-9.851,9.075-13.421,14.637s-5.711,12.588-4.426,19.175C47.66,55.916,53.371,60.6,58.226,58.7a483.6,483.6,0,0,0-38.263,44.059,15.488,15.488,0,0,1,1-1.61c2.57-3.513,5.425-6.88,7.852-10.539,11.422-17.565,11.422-42.156.143-59.721,1.285,1.9-5.711,18.443-6.568,21.371-2,7.465-3.855,14.93-5.568,22.542-1.713,7.758-3,15.516-4.283,23.274-.286,2.342-2.855,13.906-.143,14.638-2.427,3.367-4.854,6.733-7.139,10.1-2,2.928-4,5.855-5.854,8.783,3.284-8.929,3.855-18.443,4.14-28.1.285-10.539.714-21.078,1-31.471,0-1.61-.428-17.419-.428-17.419S-3.452,69.821-4.166,71.285A113.639,113.639,0,0,0-19.014,123.1c-.285,6.733-1.856,21.371,4,26.2a4.279,4.279,0,0,0,2.855,1.171A465,465,0,0,0-43,211.221Z" transform="translate(43)" fill="#fee3ce"/>
    <path id="Path_10" data-name="Path 10" d="M-8.869,136.285c0-10.571.536-28.613,12.5-38.273,19.636-15.856,47.305-11.664,63.014-4.921,12.139,5.285,10.711,9.477,21.421,12.211,18.744,4.738,30.168-6.2,41.593,1.276,4.82,3.1,10.711,10.024,9.461,16.4-4.82,23.875-46.591,33.17-83.722,32.076C27.011,154.328,4.7,144.122-8.869,136.285Z" transform="translate(63.337 54.794)" fill="#fff"/>
    <path id="Path_11" data-name="Path 11" d="M139.05,122.91c-4.82,23.875-46.591,33.169-83.722,32.075-28.383-.728-50.519-10.934-64.085-18.771v-2.551c.179-10.753,1.428-26.791,12.5-35.539C23.553,82.269,51.044,86.46,66.753,93.2c12.139,5.285,10.711,9.477,21.421,12.211,18.744,4.739,30.168-6.2,41.593,1.276a5.42,5.42,0,0,1,1.25.911C135.3,110.881,140.121,117.078,139.05,122.91Z" transform="translate(63.403 54.865)" fill="#fdb208"/>
    <path id="Path_12" data-name="Path 12" d="M130.9,107.49c-3.392,6.561-9.283,11.664-15.709,15.309a58.166,58.166,0,0,1-52.3,2.188c-4.82-2.188-24.992-9.842-30.525-9.842a57.708,57.708,0,0,0-17.494,2.916A57.58,57.58,0,0,0-8.869,133.551c.179-10.753,1.428-26.791,12.5-35.539,19.815-15.856,47.305-11.664,63.014-4.921,12.139,5.285,10.711,9.477,21.421,12.211,18.744,4.738,30.168-6.2,41.593,1.276C130.012,106.761,130.369,107.125,130.9,107.49Z" transform="translate(63.337 54.794)" fill="#f4f4f4" opacity="0.2"/>
    <path id="Path_13" data-name="Path 13" d="M76.441,116.488c-3.57-2.369-29.454-18.406-57.838-8.2C-9.066,118.311-21.74,170.617-24.418,208.526" transform="translate(54.072 66.025)" fill="none"/>
  </g>
</svg>
