<svg xmlns="http://www.w3.org/2000/svg" width="144" height="160" viewBox="0 0 144 160">
  <g id="Brand_logo" data-name="Brand logo" transform="translate(-45 -59.729)">
    <path id="Rectangle_195" data-name="Rectangle 195" d="M0,0H70.5A70.5,70.5,0,0,1,141,70.5v0A70.5,70.5,0,0,1,70.5,141h0A70.5,70.5,0,0,1,0,70.5V0A0,0,0,0,1,0,0Z" transform="translate(48 59.729)" fill="#fcc037"/>
    <g id="Rectangle_196" data-name="Rectangle 196" transform="translate(45 84.729)" fill="#0f773a" stroke="#fff" stroke-width="10">
      <path d="M0,0H67.5A67.5,67.5,0,0,1,135,67.5v0A67.5,67.5,0,0,1,67.5,135h0A67.5,67.5,0,0,1,0,67.5V0A0,0,0,0,1,0,0Z" stroke="none"/>
      <path d="M6.6,5H67.5A62.5,62.5,0,0,1,130,67.5v0A62.5,62.5,0,0,1,67.5,130h0A62.5,62.5,0,0,1,5,67.5V6.6A1.6,1.6,0,0,1,6.6,5Z" fill="none"/>
    </g>
  </g>
</svg>
