<svg xmlns="http://www.w3.org/2000/svg" width="19.837" height="22.554" viewBox="0 0 19.837 22.554">
  <path id="Icon_map-electronics-store" data-name="Icon map-electronics-store" d="M12.646,23.567A9.919,9.919,0,0,1,7.515,5.16,1.359,1.359,0,1,1,8.923,7.484a7.2,7.2,0,1,0,7.281-.1,1.359,1.359,0,1,1,1.345-2.361,9.92,9.92,0,0,1-4.9,18.543Zm-.1-10.054c-.75,0-1.659-.608-1.659-1.359V2.372c0-.75.908-1.359,1.659-1.359S14.2,1.622,14.2,2.372v9.783c0,.75-.908,1.359-1.659,1.359Z" transform="translate(-2.728 -1.013)" fill="#0f773a"/>
</svg>
