<svg xmlns="http://www.w3.org/2000/svg" width="20.204" height="15.153" viewBox="0 0 20.204 15.153">
  <path id="Icon_metro-credit-card" data-name="Icon metro-credit-card" d="M20.881,5.784H4.465A1.9,1.9,0,0,0,2.571,7.678V19.043a1.9,1.9,0,0,0,1.894,1.894H20.881a1.9,1.9,0,0,0,1.894-1.894V7.678a1.9,1.9,0,0,0-1.894-1.894ZM4.465,7.047H20.881a.64.64,0,0,1,.631.631V9.572H3.833V7.678a.64.64,0,0,1,.631-.631ZM20.881,19.674H4.465a.64.64,0,0,1-.631-.631V13.361H21.512v5.682A.64.64,0,0,1,20.881,19.674ZM5.1,15.886H6.359v2.525H5.1Zm2.525,0H8.884v2.525H7.622Zm2.525,0H11.41v2.525H10.147Z" transform="translate(-2.571 -5.784)" fill="#0f773a"/>
</svg>
