<svg xmlns="http://www.w3.org/2000/svg" width="270.838" height="281.559" viewBox="0 0 270.838 281.559">
  <g id="Group_4" data-name="Group 4" transform="translate(270.838 272.622) rotate(177)">
    <path id="Path_1" data-name="Path 1" d="M.776,153.454c6.6,15.856,46.948-4.738,55.7-11.117,2.321-1.641,4.641-3.646,6.783-5.468,1.071-.911,1.964-1.822,2.856-2.734,4.284-4.009,8.39-8.566,12.5-13.122.714-.729,1.428-1.64,2.142-2.369,4.106-4.739,8.212-9.477,12.5-14.033l2.678-2.734c1.607-1.64,3.213-3.281,5-4.921,1.964-1.823,3.927-3.645,6.069-5.285a19.535,19.535,0,0,1,3.035-2.369c3.57-2.916,7.14-5.468,10.889-8.019a28.985,28.985,0,0,1,3.035-2l11.782-7.654,2.321-1.458,15.53-9.842c.714-.364,1.428-.911,2.142-1.276,1.785-1.276,3.749-2.551,5.534-3.645C181.428,41.553,200.529,23.692,207.492,0,196.246,20.047,175.717,34.263,153.4,37.179c-11.6,1.64-23.563.364-34.631,4.374-12.5,4.374-21.957,14.58-32.489,22.417C69.5,76.363,58.97,66.339,39.691,73.629,5.239,86.569,17.2,111.9,11.665,121.561,6.845,128.3-2.794,144.889.776,153.454Z" transform="translate(54.227 21.769)" fill="#b4d9d2"/>
    <path id="Path_2" data-name="Path 2" d="M.714,24.421C0,21.505,0,14.762,0,13.669.357,8.748,1.964,4.738,3.392,0A40.327,40.327,0,0,0,1.964,15.309c0,.729,1.071,4.738,1.071,7.472Z" transform="translate(188.708 68.79)" fill="#fff7fb" opacity="0.37"/>
    <path id="Path_3" data-name="Path 3" d="M1.964,16.038c0-.364-.179-.547-.179-.729A40.327,40.327,0,0,1,3.213,0C1.785,4.556.179,8.748,0,13.669V17.5A7.933,7.933,0,0,1,1.964,16.038Z" transform="translate(207.452 64.598)" fill="#fff7fb" opacity="0.37"/>
    <path id="Path_4" data-name="Path 4" d="M3.42,24.968c-.357-2.916-1.071-5.832-1.071-6.561A52.952,52.952,0,0,1,3.956,0C2.349,5.65.386,10.388.029,16.4A84.4,84.4,0,0,0,.386,27.155C1.457,26.244,2.528,25.7,3.42,24.968Z" transform="translate(174.22 75.897)" fill="#fff7fb" opacity="0.37"/>
    <path id="Path_5" data-name="Path 5" d="M.464,27.337A19.537,19.537,0,0,1,3.5,24.968c-.357-2.916-1.071-5.832-1.071-6.561A49,49,0,0,1,4.034,0C2.427,5.65.464,10.388.107,16.4A62.289,62.289,0,0,0,.464,27.337Z" transform="translate(160.396 85.921)" fill="#fff7fb" opacity="0.37"/>
    <path id="Path_6" data-name="Path 6" d="M.981,29.707l2.678-2.734c0-3.281-1.25-7.655-1.25-8.566A52.952,52.952,0,0,1,4.016,0C2.409,5.65.446,10.388.088,16.4-.09,17.678-.09,26.244.981,29.707Z" transform="translate(146.312 96.674)" fill="#fff7fb" opacity="0.37"/>
    <path id="Path_7" data-name="Path 7" d="M1.434,30.8C-.173,28.8.006,17.861.006,16.4.363,10.571,2.327,5.65,3.933,0A45.892,45.892,0,0,0,2.327,18.407c.179.911,1.607,6.561,1.25,10.024Z" transform="translate(131.4 111.983)" fill="#fff7fb" opacity="0.37"/>
    <path id="Path_8" data-name="Path 8" d="M1.331,35.9C-.1,32.44-.1,21.141.081,19.318.438,12.211,2.937,6.561,4.9,0A56.709,56.709,0,0,0,2.937,21.87c.179,1.094,1.607,7.29,1.428,11.3Z" transform="translate(116.151 122.554)" fill="#fff7fb" opacity="0.37"/>
    <path id="Path_9" data-name="Path 9" d="M1.428,211.806A477.294,477.294,0,0,1,32.98,149.6l.428-.439c-.143.878-.285-.878,0,0,7.71-4.1,15.419,1.317,23.557,2.635a42.477,42.477,0,0,0,32.409-8.49,45.6,45.6,0,0,0,16.99-29.568C100.8,120.613,91.8,123.541,83.236,125s-17.561,1.61-25.842,4.391a59.069,59.069,0,0,0-18.7,11.564c.143-.293.285-.732.428-1.025,3.426-5.416,6.853-10.685,10.565-15.955,8-11.71,16.562-22.981,25.556-33.813-4.711,12,20.131,13.467,29.982,9.222a42.126,42.126,0,0,0,22.844-25.762c-14.848,7.319-31.267-2.635-44.973,7.319,6-6.88,12.136-13.613,18.56-20.053,0,.293.143.439.143.732,1.428,3.513,12.992,1.317,15.848.732,12.849-2.2,19.845-9.368,29.982-16.394-5,3.367-11.279,3.806-17.276,3.659s-12.136-.732-17.847,1.025a9.686,9.686,0,0,0-1.428.586c4.14-4.1,8.424-8.051,12.707-11.857a9.039,9.039,0,0,0,2,1.171c9.851,4.391,23.986-8.051,29.7-14.93C161.9,18,166.33,8.929,170.756,0c-6.425,4.245-13.992,6.148-21.416,8.2s-14.848,4.538-20.7,9.661c-4.854,4.391-10.422,14.784-6,20.346-5.711,5.123-11.422,10.539-16.847,15.955a23.511,23.511,0,0,0,1.142-2.635c3.712-10.978,4.711-23.566,4.569-35.13,0-1.464-.571-5.27-.571-5.27s-3.284,2.2-4.14,2.928c-4.854,4.538-9.851,9.075-13.421,14.637s-5.711,12.588-4.426,19.175C90.66,55.916,96.371,60.6,101.226,58.7a483.593,483.593,0,0,0-38.263,44.059,15.487,15.487,0,0,1,1-1.61c2.57-3.513,5.425-6.88,7.852-10.539,11.422-17.565,11.422-42.156.143-59.721,1.285,1.9-5.711,18.443-6.568,21.371-2,7.465-3.855,14.93-5.568,22.542-1.713,7.758-3,15.516-4.283,23.274-.286,2.342-2.855,13.906-.143,14.638-2.427,3.367-4.854,6.733-7.139,10.1-2,2.928-4,5.855-5.854,8.783,3.284-8.929,3.855-18.443,4.14-28.1.285-10.539.714-21.078,1-31.471,0-1.61-.428-17.419-.428-17.419s-7.567,15.223-8.281,16.687A113.639,113.639,0,0,0,23.986,123.1c-.285,6.733-1.856,21.371,4,26.2a4.279,4.279,0,0,0,2.855,1.171A464.994,464.994,0,0,0,0,211.221Z" transform="translate(0 0)" fill="#fee3ce"/>
    <path id="Path_10" data-name="Path 10" d="M0,49.21C0,38.639.536,20.6,12.5,10.937,32.132-4.919,59.8-.727,75.51,6.016,87.649,11.3,86.221,15.493,96.932,18.227c18.744,4.738,30.168-6.2,41.593,1.276,4.82,3.1,10.711,10.024,9.461,16.4-4.82,23.875-46.591,33.17-83.722,32.075C35.881,67.253,13.567,57.047,0,49.21Z" transform="translate(54.467 141.87)" fill="#fff"/>
    <path id="Path_11" data-name="Path 11" d="M147.807,35.723C142.987,59.6,101.216,68.892,64.085,67.8,35.7,67.07,13.567,56.865,0,49.028V46.476C.179,35.723,1.428,19.685,12.5,10.937,32.311-4.919,59.8-.727,75.51,6.017,87.649,11.3,86.221,15.494,96.932,18.227c18.744,4.739,30.168-6.2,41.593,1.276a5.42,5.42,0,0,1,1.25.911C144.058,23.694,148.878,29.89,147.807,35.723Z" transform="translate(54.646 142.052)" fill="#fdb208"/>
    <path id="Path_12" data-name="Path 12" d="M139.774,20.414c-3.392,6.561-9.283,11.664-15.709,15.309a58.166,58.166,0,0,1-52.3,2.188c-4.82-2.188-24.992-9.842-30.525-9.842a57.708,57.708,0,0,0-17.494,2.916A57.58,57.58,0,0,0,0,46.476C.179,35.723,1.428,19.685,12.5,10.937,32.311-4.919,59.8-.727,75.51,6.016,87.649,11.3,86.221,15.493,96.932,18.227c18.744,4.738,30.168-6.2,41.593,1.276C138.882,19.685,139.239,20.05,139.774,20.414Z" transform="translate(54.467 141.87)" fill="#f4f4f4" opacity="0.2"/>
    <path id="Path_13" data-name="Path 13" d="M100.859,11.566C97.289,9.2,71.4-6.84,43.021,3.366,15.352,13.389,2.678,65.695,0,103.6" transform="translate(29.654 170.947)" fill="none"/>
  </g>
</svg>
